<svg width="11" height="14" viewBox="0 0 11 14" fill="none" xmlns="http://www.w3.org/2000/svg">
<path d="M8.57019 9.67593H2.61612" stroke="white" stroke-miterlimit="10" stroke-linecap="round"/>
<path d="M8.57019 11.207H2.61612" stroke="white" stroke-miterlimit="10" stroke-linecap="round"/>
<path d="M8.57019 8.1449H2.61612" stroke="white" stroke-miterlimit="10" stroke-linecap="round"/>
<path d="M8.57019 6.61383H2.61612" stroke="white" stroke-miterlimit="10" stroke-linecap="round"/>
<path d="M8.57019 5.08279H2.61612" stroke="white" stroke-miterlimit="10" stroke-linecap="round"/>
<path d="M5.16785 3.55176H2.6161" stroke="white" stroke-miterlimit="10" stroke-linecap="round"/>
<path d="M7.97476 1H4.57244C3.60845 1 1.61242 1 1.34023 1C1.06805 1 1 1.22682 1 1.34023C1 4.91267 1 12.1596 1 12.5679C1 12.9762 1.22682 13.0215 1.34023 12.9932C4.00539 12.9932 9.42075 12.9932 9.76099 12.9932C10.1012 12.9932 10.1863 12.7097 10.1863 12.5679V3.72186M7.97476 1L10.1863 3.72186M7.97476 1V3.29657C7.97476 3.38163 7.94641 3.72186 8.28664 3.72186C8.62688 3.72186 9.67593 3.69351 10.1863 3.72186" stroke="white"/>
</svg>
