<?xml version="1.0" encoding="utf-8"?>
<!-- Generator: Adobe Illustrator 26.2.1, SVG Export Plug-In . SVG Version: 6.00 Build 0)  -->
<svg version="1.1" id="Layer_1" xmlns="http://www.w3.org/2000/svg" xmlns:xlink="http://www.w3.org/1999/xlink" x="0px" y="0px"
	 viewBox="0 0 23 27" style="enable-background:new 0 0 23 27;" xml:space="preserve">
<style type="text/css">
	.st0{fill:#464869;}
</style>
<path class="st0" d="M11.4,2.3c-1.3,0-2.3,4.9-2.3,10.9c0,6,1,10.9,2.3,10.9c1.3,0,2.3-4.9,2.3-10.9C13.7,7.2,12.7,2.3,11.4,2.3z
	 M11.6,23.4c-0.1,0.2-0.3,0.1-0.3,0.1c-0.6-0.7-0.9-2-0.9-2c-1-3.5-0.8-10.9-0.8-10.9c0.5-5.9,1.4-7.3,1.7-7.6c0,0,0.1-0.1,0.1-0.1
	c0,0,0.1,0,0.1,0c0.4,0.3,0.8,1.7,0.8,1.7c1.1,4.2,1,8.1,1,8.1c0.1,3.4-0.5,7.3-0.5,7.3C12.2,22.8,11.6,23.4,11.6,23.4z"/>
<path class="st0" d="M20.3,7.8c-0.6-1.2-5.1,0.3-10.1,3.3c-4.9,3-8.4,6.3-7.8,7.5c0.6,1.2,5.1-0.3,10.1-3.3C17.5,12.3,21,9,20.3,7.8
	z M3,18.4c-0.2,0-0.2-0.2-0.2-0.2c0.3-0.9,1.2-1.8,1.2-1.8c2.4-2.7,8.6-6.2,8.6-6.2c5.1-2.5,6.7-2.4,7.1-2.3c0,0,0.1,0,0.1,0.1
	c0,0,0,0.1,0,0.1c0,0.6-1,1.6-1,1.6c-2.9,3.1-6.2,4.9-6.2,4.9c-2.8,1.8-6.2,3.1-6.2,3.1C3.9,18.8,3,18.4,3,18.4z"/>
<path class="st0" d="M20.3,18.6c0.6-1.2-2.8-4.5-7.8-7.5c-4.9-3-9.4-4.5-10.1-3.3c-0.6,1.2,2.8,4.5,7.8,7.5
	C15.2,18.3,19.7,19.8,20.3,18.6z M2.9,8.2C2.8,8,3,7.9,3,7.9c0.9-0.2,2.1,0.2,2.1,0.2c3.4,0.8,9.4,4.8,9.4,4.8
	c4.6,3.4,5.3,4.9,5.4,5.3c0,0,0,0.1,0,0.1c0,0,0,0.1-0.1,0.1c-0.5,0.2-1.8-0.1-1.8-0.1c-4-1.1-7.2-3.2-7.2-3.2C8,13.5,5.2,11,5.2,11
	C3.1,9.1,2.9,8.2,2.9,8.2L2.9,8.2z"/>
<path class="st0" d="M11.4,14.5c0.7,0,1.2-0.6,1.2-1.3s-0.5-1.3-1.2-1.3s-1.2,0.6-1.2,1.3S10.7,14.5,11.4,14.5z"/>
<path class="st0" d="M16.3,9c0.4,0,0.7-0.3,0.7-0.8s-0.3-0.8-0.7-0.8c-0.4,0-0.7,0.3-0.7,0.8S16,9,16.3,9z"/>
<path class="st0" d="M4.8,11.6c0.4,0,0.7-0.3,0.7-0.8c0-0.4-0.3-0.8-0.7-0.8c-0.4,0-0.7,0.3-0.7,0.8C4.1,11.3,4.4,11.6,4.8,11.6z"/>
<path class="st0" d="M9.9,21c0.4,0,0.7-0.3,0.7-0.8c0-0.4-0.3-0.8-0.7-0.8c-0.4,0-0.7,0.3-0.7,0.8C9.2,20.7,9.6,21,9.9,21z"/>
</svg>
