<svg width="38" height="38" viewBox="0 0 38 38" fill="none" xmlns="http://www.w3.org/2000/svg">
<path d="M19.01 37.2769C29.095 37.2769 37.2705 29.1052 37.2705 19.0249C37.2705 8.94464 29.095 0.772949 19.01 0.772949C8.92502 0.772949 0.749512 8.94464 0.749512 19.0249C0.749512 29.1052 8.92502 37.2769 19.01 37.2769Z" fill="#627EEA"/>
<path d="M19.5791 5.3335V15.4524L28.1353 19.2744L19.5791 5.3335Z" fill="white" fill-opacity="0.602"/>
<path d="M19.5791 5.3335L11.0229 19.2744L19.5791 15.4524V5.3335Z" fill="white"/>
<path d="M19.5791 25.8309V32.7065L28.1402 20.8662L19.5791 25.8309Z" fill="white" fill-opacity="0.602"/>
<path d="M19.5791 32.7065V25.8309L11.0229 20.8662L19.5791 32.7065Z" fill="white"/>
<path d="M19.5791 24.2391L28.1353 19.2744L19.5791 15.4524V24.2391Z" fill="white" fill-opacity="0.2"/>
<path d="M11.0229 19.2744L19.5791 24.2391V15.4524L11.0229 19.2744Z" fill="white" fill-opacity="0.602"/>
</svg>
