<svg width="77" height="108" viewBox="0 0 77 108" fill="none" xmlns="http://www.w3.org/2000/svg">
<g clip-path="url(#clip0_3_1706)">
<path d="M71.072 78.3583C70.202 77.4013 69.2329 76.5388 68.1812 75.785C69.5093 73.3744 70.7072 70.8946 71.7696 68.3562C73.0815 65.2572 74.16 62.0649 74.9958 58.8058C75.9448 55.1817 76.4436 51.455 76.4813 47.7094C76.5022 44.8448 76.1196 41.9915 75.3445 39.2332C74.458 36.0868 72.9418 33.1522 70.8876 30.6064C72.2658 28.2636 73.0563 25.6232 73.1916 22.9099C73.1916 22.6054 73.2152 22.3009 73.2152 21.9963C73.2182 18.6568 72.2311 15.3909 70.3781 12.6099C70.6211 12.3442 70.8162 12.0385 70.9548 11.7064C71.1019 11.3462 71.1782 10.9611 71.1794 10.572C71.178 10.281 71.1362 9.99163 71.0553 9.71204C70.9444 9.3331 70.7724 8.97477 70.5457 8.65124C70.3349 8.35042 70.0909 8.07429 69.818 7.82806C69.4847 7.516 69.1071 7.25443 68.6977 7.05171C68.4837 6.9444 68.2589 6.86026 68.027 6.80074C67.7706 6.73466 67.507 6.70094 67.2423 6.70035C66.4555 6.69753 65.6997 7.0055 65.1397 7.55701C62.7049 6.05114 59.9283 5.18325 57.0676 5.03388C56.7591 5.01714 56.4541 5.01045 56.1523 5.01045C54.9882 5.01033 53.8273 5.13032 52.688 5.36851C50.9872 3.78126 48.9986 2.53199 46.8291 1.68756C44.1261 0.616741 40.9202 0.0144043 37.1407 0.0144043C36.7081 0.0144043 36.2689 0.0144067 35.8229 0.0378309H35.7423C33.7041 0.148203 31.6919 0.547069 29.7662 1.22244C28.5854 1.64585 27.4762 2.24612 26.4765 3.00266C25.8019 3.519 25.1976 4.12084 24.6788 4.79295C23.9631 5.73446 23.4276 6.7997 23.0993 7.93515C22.7986 8.99991 22.6494 10.1016 22.6565 11.2078C22.6794 12.7264 22.8982 14.2357 23.3073 15.6986C23.8129 17.5409 24.5026 19.3279 25.3663 21.0326C25.648 21.6015 25.9096 22.0767 26.1175 22.4481C23.4147 24.1089 21.0524 26.2664 19.1556 28.8061C17.6187 30.8663 16.3373 33.1045 15.3393 35.472C13.8524 39.0432 12.8116 42.7835 12.2405 46.6085C11.672 50.3011 11.3937 54.0325 11.4087 57.7685C11.4098 61.0188 11.5947 64.2666 11.9621 67.4962C12.1231 68.9184 12.2976 70.2201 12.5022 71.3712C12.5022 71.4616 12.5322 71.5519 12.549 71.6389C10.9937 71.7427 9.45966 72.0556 7.9883 72.5692C6.70696 73.0224 5.50505 73.6739 4.42677 74.5C2.97574 75.6309 1.82434 77.0992 1.07321 78.7766C0.367018 80.3445 0.00122877 82.0437 0 83.7626C0.00192169 84.7525 0.114402 85.739 0.335357 86.704C0.672081 88.1615 1.2844 89.5414 2.13954 90.7698C2.98077 91.9806 4.02574 93.0369 5.22816 93.8919C6.57736 94.8559 8.07645 95.5919 9.66508 96.0704C11.1755 96.5196 12.7437 96.7451 14.3198 96.7396C15.6112 96.7357 16.8988 96.6011 18.163 96.3381C18.5174 97.5244 19.0045 98.6671 19.6151 99.7446C20.6957 101.648 22.1843 103.29 23.9747 104.553C26.0297 105.97 28.3628 106.935 30.8194 107.384C32.1993 107.664 33.6034 107.807 35.0114 107.813C36.5243 107.816 38.0317 107.631 39.4984 107.26C41.853 106.66 44.0522 105.566 45.9504 104.051C46.7789 103.394 47.551 102.669 48.2579 101.883C48.6973 102.194 49.1498 102.492 49.6226 102.766C50.9401 103.538 52.3527 104.135 53.8247 104.543C55.3982 104.98 57.0242 105.199 58.6573 105.196C59.5886 105.195 60.5186 105.129 61.4407 104.998C63.8436 104.663 66.1401 103.793 68.1602 102.452C70.1804 101.111 71.8724 99.3335 73.111 97.2516C74.5731 94.8092 75.3483 92.0186 75.3547 89.1736C75.3521 87.0745 74.9254 84.9975 74.1004 83.0666C73.3614 81.3395 72.3377 79.7481 71.072 78.3583ZM56.8429 9.51125C58.4697 9.59099 60.0649 9.98893 61.5379 10.6825C63.6682 11.6868 65.4737 13.2669 66.7494 15.2435C68.0609 17.2564 68.7597 19.6055 68.7615 22.0064C68.7615 22.2306 68.7615 22.4548 68.7615 22.6757C68.6851 24.1375 68.3526 25.5748 67.779 26.9221L67.648 27.2099C66.8394 26.5165 65.992 25.8696 65.1096 25.2724C63.4925 24.1801 61.7834 23.2296 60.002 22.4314L59.9214 21.8893C59.619 19.6711 59.1596 17.4772 58.5466 15.3238C58.0021 13.4369 57.2437 11.6182 56.2862 9.90278C56.2091 9.76223 56.1287 9.62502 56.0448 9.48782H56.2125C56.3981 9.49005 56.6082 9.49786 56.8429 9.51125ZM27.5461 8.84198C27.7332 8.31902 28.0076 7.83139 28.3576 7.39972C28.6504 7.03894 28.9885 6.71728 29.3637 6.44268C30.1415 5.89868 31.0038 5.48603 31.9159 5.22127C33.2547 4.8282 34.634 4.58906 36.0273 4.5085C36.4051 4.49512 36.7774 4.48843 37.144 4.48843C39.1052 4.46683 41.0616 4.68598 42.9692 5.14096C44.29 5.45681 45.5648 5.94039 46.7623 6.57987C47.6686 7.06709 48.5157 7.65656 49.2873 8.33669C50.541 9.45577 51.5919 10.7826 52.3929 12.2586C53.5453 14.4412 54.3668 16.7823 54.8308 19.2055C54.9281 19.674 55.0153 20.1325 55.0957 20.5876C54.2484 20.3176 53.3842 20.0711 52.5033 19.848H52.4633H52.4162C48.8141 19.0212 45.1326 18.587 41.4365 18.553C38.6216 18.5326 35.8158 18.8699 33.0863 19.5569C32.0911 19.8144 31.1114 20.1283 30.152 20.4972C29.6269 19.5856 29.1545 18.6449 28.7369 17.6796C28.2914 16.6595 27.9213 15.6082 27.6299 14.5341C27.3329 13.4575 27.1743 12.3477 27.1573 11.2313C27.141 10.4193 27.2668 9.6107 27.5294 8.84198H27.5461ZM29.3437 79.0276C29.6186 79.2558 29.8416 79.5399 29.9977 79.8608C30.1467 80.1837 30.22 80.5361 30.2122 80.8915C30.2018 81.4003 30.1055 81.9037 29.9273 82.3806C29.7234 82.9378 29.4626 83.4727 29.1492 83.9768C28.4517 85.0802 27.6105 86.0862 26.6474 86.9684C25.2103 88.3058 23.5901 89.4325 21.8352 90.3147C21.8598 88.8225 22.0624 87.3386 22.4388 85.8942C22.7149 84.8228 23.0945 83.7805 23.5722 82.7822C23.8884 82.1241 24.2596 81.4938 24.6821 80.8982C25.1661 80.1938 25.7742 79.5827 26.4765 79.0945C26.725 78.9282 26.9944 78.7954 27.2779 78.6996C27.5022 78.6221 27.738 78.5825 27.9754 78.5825C28.2034 78.5814 28.4299 78.6175 28.6461 78.6896C28.8922 78.7719 29.1267 78.8855 29.3437 79.0276ZM48.5697 92.463C48.2845 93.322 47.9383 94.1596 47.5335 94.9694C46.4887 93.611 45.649 92.107 45.0416 90.5055C44.4488 89.0033 44.1288 87.4079 44.0961 85.7938C44.0885 85.1852 44.1584 84.578 44.3041 83.9868C44.3857 83.6513 44.5096 83.3275 44.6728 83.0231C44.7657 82.8481 44.8782 82.6842 45.0082 82.5345C45.1817 82.3437 45.3914 82.189 45.6252 82.0794C45.9253 81.9443 46.2486 81.8682 46.5776 81.8552H46.7655C46.9614 81.8539 47.1563 81.8787 47.3455 81.9288C47.4805 81.9623 47.6104 82.0141 47.7313 82.0828C47.9697 82.2156 48.1786 82.3955 48.3451 82.6115C48.7276 83.1211 49.0026 83.7028 49.1533 84.3214C49.3873 85.2114 49.5001 86.1287 49.4887 87.0487C49.4697 88.8905 49.1595 90.7177 48.5697 92.463ZM70.1164 93.1323C69.3731 95.0883 68.1163 96.809 66.4779 98.1142C64.8395 99.4194 62.8796 100.261 60.8034 100.551C60.0901 100.652 59.3708 100.703 58.6504 100.705C55.8659 100.719 53.1486 99.8531 50.8871 98.2321C51.7019 96.8185 52.3682 95.3249 52.8756 93.7748C53.5959 91.6053 53.9737 89.3373 53.9957 87.0521C54.0034 85.8963 53.8797 84.7433 53.6269 83.6154C53.446 82.8056 53.1713 82.0195 52.8085 81.273C52.5345 80.7289 52.2005 80.2171 51.8126 79.747C51.2174 79.0162 50.4719 78.4216 49.6262 78.0036C48.735 77.5767 47.7574 77.3592 46.7688 77.3678C46.6112 77.3678 46.4536 77.3678 46.2926 77.3845C45.2412 77.4378 44.2157 77.7296 43.2944 78.2379C42.6375 78.607 42.0498 79.0871 41.5574 79.6567C40.8533 80.4943 40.3335 81.4702 40.0316 82.5211C39.7245 83.587 39.5732 84.6915 39.5822 85.8005C39.6179 87.9924 40.0495 90.1598 40.8565 92.1987C41.5005 93.8721 42.3461 95.461 43.375 96.9304C43.8468 97.601 44.3561 98.2446 44.9008 98.8578C44.78 98.9917 44.6594 99.1289 44.5353 99.2594C43.3567 100.49 41.9532 101.485 40.4003 102.191C38.6994 102.945 36.8557 103.327 34.9943 103.308C33.8815 103.306 32.7718 103.194 31.681 102.974C30.0271 102.671 28.4441 102.064 27.0129 101.184C26.1324 100.624 25.3411 99.9362 24.6654 99.1423C23.6931 97.9884 22.9634 96.6513 22.5193 95.2104L22.4489 94.9728C23.9285 94.3395 25.3442 93.5675 26.6776 92.6672C27.7889 91.9189 28.8378 91.0818 29.8133 90.1641C31.184 88.8949 32.3572 87.4287 33.2943 85.8139C33.7233 85.0555 34.0696 84.2534 34.3272 83.4213C34.5799 82.6037 34.7121 81.7538 34.7196 80.8982C34.724 79.8839 34.5053 78.8809 34.079 77.9601C33.6194 76.9983 32.9474 76.1529 32.1137 75.4872L32.0331 75.4236L31.9493 75.3667C31.3541 74.9616 30.7051 74.6417 30.021 74.4164C29.3632 74.1983 28.6754 74.0853 27.9823 74.0817C27.1397 74.0829 26.3044 74.2418 25.5205 74.5502C24.8522 74.812 24.221 75.1596 23.6426 75.5842C22.6179 76.3513 21.7233 77.2778 20.9932 78.3282C19.8021 80.0401 18.8962 81.9329 18.3103 83.9333C17.6623 86.0872 17.3315 88.3235 17.3278 90.5724C17.3278 91.0141 17.3279 91.4558 17.3681 91.9109C16.3623 92.1301 15.336 92.2423 14.3064 92.2455C13.1709 92.2524 12.0408 92.0911 10.9528 91.767C9.83552 91.4331 8.78164 90.9163 7.83405 90.2377C7.05358 89.6878 6.37307 89.0087 5.82191 88.2299C5.29291 87.4707 4.91387 86.6178 4.70514 85.7169C4.55947 85.079 4.48519 84.4269 4.48376 83.7727C4.47865 82.8063 4.6538 81.8475 5.00022 80.945C5.2583 80.2744 5.62282 79.6495 6.07998 79.0945C6.87475 78.1546 7.88972 77.4248 9.03465 76.9696C10.6781 76.3303 12.4323 76.0232 14.1957 76.0661C14.5076 76.0661 14.826 76.0661 15.1513 76.0895L18.126 76.2301L17.4552 73.3388C17.2842 72.6194 17.0998 71.7025 16.9221 70.6317C16.2331 66.3785 15.8877 62.0769 15.8892 57.7685C15.8657 53.6949 16.2251 49.628 16.9624 45.6213C17.5114 42.6398 18.3911 39.7285 19.585 36.941C20.4431 34.9612 21.5349 33.0907 22.8377 31.3694C23.7931 30.1168 24.8867 28.9752 26.0976 27.9662C28.0121 26.3786 30.2057 25.16 32.5666 24.3722C35.4271 23.4421 38.4218 22.9898 41.43 23.0337C44.7852 23.0684 48.1267 23.4644 51.3967 24.215C55.5283 25.2992 58.8619 26.728 61.5347 28.3778C63.3813 29.5004 65.0628 30.8732 66.5313 32.4569C68.4297 34.5249 69.8666 36.9714 70.7468 39.6348C71.5916 42.2504 72.0072 44.985 71.9775 47.7329C71.9414 51.1091 71.4909 54.4681 70.6361 57.735C69.514 62.0433 67.9637 66.2291 66.0083 70.2301C65.2336 71.833 64.536 73.1247 64.0397 74.0115C63.7882 74.4532 63.5903 74.7945 63.4528 75.0154L63.3018 75.2697L63.2652 75.3299L62.0174 77.3377L64.0698 78.4922C65.4486 79.2511 66.6945 80.2287 67.7587 81.3867C68.6849 82.4069 69.4342 83.574 69.9756 84.8401C71.1143 87.4847 71.1734 90.4684 70.14 93.1557L70.1164 93.1323Z" fill="white"/>
<path d="M41.3496 49.9906C41.1624 51.1123 40.8417 52.2076 40.3939 53.2533C40.1352 53.845 39.8113 54.4062 39.4281 54.9264C39.0125 55.5076 38.4772 55.9936 37.8584 56.352C37.3823 56.6197 36.8457 56.7614 36.2992 56.7635C36.1024 56.7635 35.9059 56.7456 35.7123 56.71C35.2816 56.6376 34.8703 56.477 34.5049 56.2382C34.2214 56.0538 33.9671 55.8282 33.7503 55.5689C33.3443 55.0573 33.0416 54.4721 32.8585 53.8455C32.6006 52.9609 32.4761 52.0429 32.4895 51.1217C32.4952 50.2305 32.5783 49.3415 32.7377 48.4647L28.3109 47.6816C28.0986 48.8163 27.9864 49.9674 27.9756 51.1217C27.9656 52.3487 28.1177 53.5718 28.4282 54.7591C28.6438 55.5748 28.958 56.3614 29.3638 57.1015C29.943 58.1528 30.744 59.0662 31.7113 59.7786C32.6642 60.4739 33.7649 60.941 34.9277 61.1439C35.3804 61.2241 35.8394 61.2644 36.2992 61.2643C37.4536 61.2621 38.5926 61.0014 39.6325 60.5014C40.4304 60.114 41.1644 59.6073 41.809 58.9989C42.8474 58.004 43.6912 56.8249 44.2974 55.5221C45.006 54.0129 45.5047 52.4142 45.7796 50.7703L41.3496 49.9873V49.9906Z" fill="white"/>
<path d="M54.6698 44.7905C54.4126 44.3787 54.0695 44.0272 53.6637 43.7598C53.2904 43.5117 52.8745 43.3347 52.4366 43.2378C52.1672 43.1756 51.8915 43.1441 51.6149 43.1441C51.1543 43.1423 50.698 43.2333 50.2735 43.4118C49.9463 43.5488 49.6419 43.735 49.3712 43.9639C48.9723 44.3062 48.6433 44.722 48.4022 45.1887C48.1551 45.6656 47.9723 46.1731 47.8589 46.6979C47.754 47.149 47.6989 47.6101 47.6944 48.0732C47.6914 48.5012 47.7514 48.9274 47.8723 49.3381C47.9644 49.6498 48.0973 49.948 48.2679 50.2249C48.5258 50.6361 48.8688 50.9875 49.274 51.2555C49.6471 51.504 50.0634 51.681 50.5014 51.7776C50.7685 51.8403 51.0419 51.8718 51.3162 51.8713C52.1337 51.8713 52.9245 51.5806 53.5465 51.0514C53.9465 50.7093 54.2768 50.2935 54.5192 49.8267C54.7663 49.3498 54.949 48.8423 55.0625 48.3175C55.1663 47.8663 55.2201 47.4051 55.2233 46.9421C55.2275 46.5143 55.1689 46.0881 55.0491 45.6772C54.9608 45.3669 54.8331 45.0689 54.6698 44.7905Z" fill="white"/>
<path d="M28.3382 43.3783C28.4355 42.9613 28.4862 42.5348 28.4892 42.1067C28.4912 41.6954 28.4323 41.2861 28.3146 40.892C28.2257 40.5913 28.0962 40.3042 27.9291 40.0387C27.6816 39.6389 27.3509 39.2966 26.9597 39.0348C26.6012 38.7983 26.2023 38.6293 25.7827 38.5362C25.5208 38.4769 25.2532 38.4466 24.9846 38.4458C24.2017 38.4434 23.4435 38.7186 22.8451 39.2222C22.4611 39.5468 22.1434 39.9421 21.9094 40.3867C21.674 40.8327 21.5012 41.309 21.3962 41.8022C21.2989 42.2203 21.2482 42.6479 21.2452 43.0771C21.2421 43.4882 21.3 43.8975 21.4165 44.2918C21.5072 44.5924 21.6378 44.8794 21.8053 45.1451C22.0526 45.544 22.382 45.8862 22.7714 46.149C23.1316 46.384 23.5314 46.5519 23.9517 46.6443C24.2116 46.7013 24.4771 46.7305 24.7432 46.7313C25.1806 46.7339 25.6139 46.6485 26.0175 46.4803C26.3314 46.3503 26.6241 46.1744 26.8861 45.9583C27.2692 45.6338 27.5859 45.2383 27.8184 44.7938C28.053 44.3458 28.2267 43.8687 28.3349 43.3749L28.3382 43.3783Z" fill="white"/>
</g>
<defs>
<clipPath id="clip0_3_1706">
<rect width="76.4814" height="107.805" fill="white"/>
</clipPath>
</defs>
</svg>
